<svg width="21" height="21" viewBox="0 0 21 21" fill="none" xmlns="http://www.w3.org/2000/svg">
<path d="M1.18229 9.45833H3.20833C3.76087 9.45833 4.29077 9.67783 4.68147 10.0685C5.07217 10.4592 5.29167 10.9891 5.29167 11.5417V12.5833C5.29167 13.1359 5.51116 13.6658 5.90186 14.0565C6.29256 14.4472 6.82247 14.6667 7.375 14.6667C7.92753 14.6667 8.45744 14.8862 8.84814 15.2769C9.23884 15.6676 9.45833 16.1975 9.45833 16.75V19.8177M6.33333 2.09896V3.72917C6.33333 4.41983 6.6077 5.08221 7.09608 5.57059C7.58445 6.05897 8.24683 6.33333 8.9375 6.33333H9.45833C10.0109 6.33333 10.5408 6.55283 10.9315 6.94353C11.3222 7.33423 11.5417 7.86413 11.5417 8.41667C11.5417 8.9692 11.7612 9.4991 12.1519 9.88981C12.5426 10.2805 13.0725 10.5 13.625 10.5C14.1775 10.5 14.7074 10.2805 15.0981 9.88981C15.4888 9.4991 15.7083 8.9692 15.7083 8.41667C15.7083 7.86413 15.9278 7.33423 16.3185 6.94353C16.7092 6.55283 17.2391 6.33333 17.7917 6.33333H18.9M13.625 19.3417V16.75C13.625 16.1975 13.8445 15.6676 14.2352 15.2769C14.6259 14.8862 15.1558 14.6667 15.7083 14.6667H18.9M19.875 10.5C19.875 11.7311 19.6325 12.9502 19.1614 14.0877C18.6902 15.2251 17.9997 16.2586 17.1291 17.1291C16.2586 17.9997 15.2251 18.6902 14.0877 19.1614C12.9502 19.6325 11.7311 19.875 10.5 19.875C9.26886 19.875 8.04977 19.6325 6.91234 19.1614C5.77492 18.6902 4.74142 17.9997 3.87087 17.1291C3.00032 16.2586 2.30977 15.2251 1.83863 14.0877C1.36749 12.9502 1.125 11.7311 1.125 10.5C1.125 8.0136 2.11272 5.62903 3.87087 3.87087C5.62903 2.11272 8.0136 1.125 10.5 1.125C12.9864 1.125 15.371 2.11272 17.1291 3.87087C18.8873 5.62903 19.875 8.0136 19.875 10.5Z" stroke="#64748B" stroke-width="1.5" stroke-linecap="round" stroke-linejoin="round"/>
</svg>
